<?xml version="1.0" encoding="utf-8"?>
<!-- Generator: Adobe Illustrator 22.1.0, SVG Export Plug-In . SVG Version: 6.00 Build 0)  -->
<svg version="1.1" id="svg6655" xmlns:svg="http://www.w3.org/2000/svg"
	 xmlns="http://www.w3.org/2000/svg" xmlns:xlink="http://www.w3.org/1999/xlink" x="0px" y="0px" width="130px" height="84px"
	 viewBox="0 0 130 84" style="enable-background:new 0 0 130 84;" xml:space="preserve">
<style type="text/css">
	.st0{fill:#0C4DA2;}
	.st1{fill:#FFFFFF;}
	.st2{fill:#6C6C6F;}
	.st3{fill:#58585A;}
	.st4{fill:#A7A9AC;}
	.st5{fill:#B1B3B4;}
</style>
<g>
	<path id="path5774" class="st0" d="M74.4,74.5L74.4,74.5c0.1-0.2,0.2-0.4,0.3-0.6l1.1-1.9h0.9l-1.5,2.3l1.6,3.2h-1l-1.2-2.6
		l-0.3,0.5v2.1h-0.9v-7.9h0.9V74.5L74.4,74.5z M70.7,73.4c0-0.5,0-1,0-1.4h0.8l0,0.9h0c0.2-0.5,0.6-1,1.2-1c0.1,0,0.1,0,0.2,0v0.9
		c-0.1,0-0.1,0-0.2,0c-0.6,0-1,0.5-1.1,1.2c0,0.1,0,0.3,0,0.5v3.1h-0.9L70.7,73.4L70.7,73.4z M67,74.7c0,0.9,0.2,2.2,1,2.2
		c0.8,0,0.9-1.3,0.9-2.2c0-0.8-0.1-2.1-0.9-2.1C67.2,72.6,67,73.9,67,74.7 M69.8,74.7c0,2.1-1,2.9-1.8,2.9c-1,0-1.8-0.9-1.8-2.8
		c0-2,0.9-2.9,1.8-2.9C69,71.9,69.8,72.8,69.8,74.7 M60.4,77.5l-1.5-7.7h0.9l0.6,3.7c0.2,1,0.3,1.8,0.4,2.8h0c0.1-1,0.3-1.8,0.5-2.8
		l0.7-3.7h0.8l0.7,3.6c0.2,0.9,0.3,1.8,0.4,2.9h0c0.1-1.1,0.3-1.9,0.4-2.8l0.6-3.7h0.9l-1.5,7.7h-0.9l-0.7-3.7
		c-0.1-0.8-0.3-1.7-0.4-2.5h0c-0.1,0.9-0.2,1.7-0.4,2.6l-0.8,3.7L60.4,77.5L60.4,77.5z M55.6,70.7V72h1.1v0.7h-1.1v3.3
		c0,0.7,0.3,0.9,0.6,0.9c0.1,0,0.3,0,0.4,0l0,0.7c-0.2,0.1-0.4,0.1-0.7,0.1c-0.3,0-0.6-0.1-0.9-0.3c-0.2-0.3-0.3-0.6-0.3-1.4v-3.2
		H54V72h0.7V71L55.6,70.7L55.6,70.7z M52.5,74.6c-0.5,0-1.5,0.1-1.5,1.3c0,0.7,0.4,1,0.7,1c0.4,0,0.7-0.3,0.8-0.8c0-0.1,0-0.2,0-0.3
		V74.6z M53.4,76.2c0,0.4,0,0.9,0.1,1.3h-0.8l-0.1-0.6h0c-0.2,0.4-0.6,0.7-1.1,0.7c-0.7,0-1.3-0.6-1.3-1.6c0-1.4,1.1-2,2.3-2v-0.2
		c0-0.7-0.2-1.3-0.9-1.3c-0.3,0-0.6,0.1-0.9,0.3l-0.2-0.6c0.2-0.2,0.7-0.4,1.3-0.4c1.1,0,1.6,0.7,1.6,2L53.4,76.2L53.4,76.2z
		 M119,58.1h0.9v3h0c0.1-0.2,0.3-0.4,0.5-0.5c0.2-0.1,0.4-0.2,0.7-0.2c0.7,0,1.3,0.6,1.3,1.9V66h-0.9v-3.6c0-0.7-0.1-1.3-0.7-1.3
		c-0.4,0-0.7,0.3-0.9,0.9c0,0.1,0,0.3,0,0.4V66H119L119,58.1L119,58.1z M117.2,59.2v1.3h1.1v0.7h-1.1v3.3c0,0.7,0.3,0.9,0.6,0.9
		c0.1,0,0.3,0,0.4,0l0,0.7c-0.2,0.1-0.4,0.1-0.6,0.1c-0.3,0-0.6-0.1-0.9-0.3c-0.2-0.3-0.3-0.6-0.3-1.4v-3.2h-0.7v-0.7h0.7v-0.9
		L117.2,59.2L117.2,59.2z M114.1,58.1h0.9V66h-0.9V58.1z M112.1,63.1c-0.5,0-1.5,0.1-1.5,1.3c0,0.7,0.4,1,0.7,1
		c0.4,0,0.7-0.3,0.8-0.8c0-0.1,0-0.2,0-0.3L112.1,63.1L112.1,63.1z M113,64.7c0,0.4,0,0.9,0.1,1.3h-0.8l-0.1-0.6h0
		c-0.2,0.4-0.6,0.7-1.1,0.7c-0.7,0-1.3-0.6-1.3-1.6c0-1.4,1.1-2,2.3-2v-0.2c0-0.7-0.2-1.3-0.9-1.3c-0.3,0-0.6,0.1-0.9,0.3l-0.2-0.6
		c0.2-0.2,0.7-0.4,1.3-0.4c1.1,0,1.6,0.7,1.6,2V64.7z M108.4,62.7c0-1.1-0.4-1.6-0.8-1.6c-0.6,0-0.9,0.8-0.9,1.6H108.4z M106.7,63.3
		c0,1.7,0.7,2.1,1.3,2.1c0.4,0,0.7-0.1,0.9-0.2l0.1,0.7c-0.3,0.2-0.8,0.3-1.2,0.3c-1.3,0-2-1.1-2-2.8c0-1.8,0.8-2.9,1.9-2.9
		c1.1,0,1.6,1.2,1.6,2.4c0,0.2,0,0.4,0,0.5L106.7,63.3L106.7,63.3z M101.8,58.3v3.3h2.2v-3.3h0.9V66H104v-3.6h-2.2V66h-0.9v-7.7
		H101.8z M96.9,62.6c0-0.1,0-0.2,0-0.4c-0.1-0.6-0.4-1.1-0.8-1.1c-0.7,0-1,1-1,2.1c0,1.2,0.3,2.1,0.9,2.1c0.3,0,0.7-0.1,0.8-0.9
		c0-0.1,0-0.2,0-0.4V62.6L96.9,62.6z M97.7,58.1v6.6c0,0.4,0,1,0,1.3H97L97,65.3h0c-0.2,0.4-0.6,0.8-1.2,0.8c-0.9,0-1.6-1-1.6-2.8
		c0-2,0.8-2.9,1.7-2.9c0.4,0,0.8,0.2,1,0.7h0v-2.9L97.7,58.1L97.7,58.1z M89.9,61.9c0-0.6,0-1,0-1.4h0.8l0,0.7h0
		c0.2-0.4,0.7-0.8,1.3-0.8c0.8,0,1.3,0.6,1.3,1.9V66h-0.9v-3.6c0-0.6-0.1-1.3-0.8-1.3c-0.4,0-0.7,0.3-0.8,0.9c0,0.1,0,0.3,0,0.5V66
		h-0.9L89.9,61.9L89.9,61.9z M87.9,63.1c-0.5,0-1.5,0.1-1.5,1.3c0,0.7,0.4,1,0.7,1c0.4,0,0.7-0.3,0.8-0.8c0-0.1,0-0.2,0-0.3
		L87.9,63.1L87.9,63.1z M88.8,64.7c0,0.4,0,0.9,0.1,1.3H88L88,65.4h0c-0.2,0.4-0.6,0.7-1.1,0.7c-0.7,0-1.3-0.6-1.3-1.6
		c0-1.4,1.1-2,2.3-2v-0.2c0-0.7-0.2-1.3-0.9-1.3c-0.3,0-0.6,0.1-0.9,0.3l-0.2-0.6c0.2-0.2,0.7-0.4,1.3-0.4c1.1,0,1.6,0.7,1.6,2
		L88.8,64.7L88.8,64.7z M80.5,60.5l0.7,3.2c0.1,0.4,0.2,0.8,0.2,1.1h0c0.1-0.3,0.1-0.7,0.2-1.1l0.6-3.2h0.9L82.3,64
		c-0.3,1.4-0.7,2.7-1.4,3.6c-0.4,0.5-0.8,0.8-1,0.8l-0.3-0.8c0.3-0.1,0.5-0.4,0.8-0.7c0.2-0.3,0.4-0.7,0.5-0.9
		c0-0.1,0.1-0.2,0.1-0.3c0-0.1,0-0.1,0-0.2l-1.4-5.1L80.5,60.5L80.5,60.5z M78,59.2v1.3H79v0.7H78v3.3c0,0.7,0.3,0.9,0.6,0.9
		c0.1,0,0.3,0,0.4,0l0,0.7c-0.2,0.1-0.4,0.1-0.7,0.1c-0.3,0-0.6-0.1-0.9-0.3c-0.2-0.3-0.3-0.6-0.3-1.4v-3.2h-0.7v-0.7h0.7v-0.9
		L78,59.2L78,59.2z M75.2,62.7c0-1.1-0.4-1.6-0.8-1.6c-0.6,0-0.9,0.8-0.9,1.6H75.2z M73.4,63.3c0,1.7,0.7,2.1,1.3,2.1
		c0.4,0,0.7-0.1,0.9-0.2l0.1,0.7c-0.3,0.2-0.8,0.3-1.2,0.3c-1.3,0-2-1.1-2-2.8c0-1.8,0.8-2.9,1.9-2.9c1.1,0,1.6,1.2,1.6,2.4
		c0,0.2,0,0.4,0,0.5L73.4,63.3L73.4,63.3z M70.4,66v-4.8h-0.7v-0.7h0.7v-0.3c0-0.6,0.1-1.2,0.5-1.7c0.3-0.4,0.8-0.5,1.1-0.5
		c0.3,0,0.5,0.1,0.7,0.1l-0.1,0.7c-0.1,0-0.3-0.1-0.5-0.1c-0.6,0-0.8,0.7-0.8,1.4v0.3h1v0.7h-1V66L70.4,66L70.4,66z M68.2,63.1
		c-0.5,0-1.5,0.1-1.5,1.3c0,0.7,0.4,1,0.7,1c0.4,0,0.7-0.3,0.8-0.8c0-0.1,0-0.2,0-0.3L68.2,63.1L68.2,63.1z M69.1,64.7
		c0,0.4,0,0.9,0.1,1.3h-0.8l-0.1-0.6h0c-0.2,0.4-0.6,0.7-1.1,0.7c-0.7,0-1.3-0.6-1.3-1.6c0-1.4,1.1-2,2.3-2v-0.2
		c0-0.7-0.2-1.3-0.9-1.3c-0.3,0-0.6,0.1-0.9,0.3l-0.2-0.6c0.2-0.2,0.7-0.4,1.3-0.4c1.1,0,1.6,0.7,1.6,2L69.1,64.7L69.1,64.7z M62,65
		c0.3,0.2,0.7,0.3,1.1,0.3c0.8,0,1.3-0.5,1.3-1.3c0-0.7-0.4-1.1-1-1.6c-0.6-0.4-1.4-1.1-1.4-2.1c0-1.2,0.8-2,2-2
		c0.5,0,0.9,0.1,1.1,0.3l-0.2,0.8c-0.2-0.1-0.5-0.3-0.9-0.3c-0.8,0-1.1,0.6-1.1,1.1c0,0.8,0.4,1.1,1.1,1.6c0.9,0.6,1.3,1.4,1.3,2.2
		c0,1.3-0.9,2.2-2.2,2.2c-0.5,0-1.1-0.2-1.3-0.3L62,65L62,65z M57.3,61.9c0-0.5,0-1,0-1.4h0.8l0,0.9h0c0.2-0.5,0.6-1,1.2-1
		c0.1,0,0.1,0,0.2,0v0.9c-0.1,0-0.1,0-0.2,0c-0.6,0-1,0.5-1.1,1.2c0,0.1,0,0.3,0,0.5V66h-0.9L57.3,61.9L57.3,61.9z M53.7,63.2
		c0,0.9,0.2,2.2,1,2.2c0.8,0,0.9-1.3,0.9-2.2c0-0.8-0.1-2.1-0.9-2.1C53.8,61.1,53.7,62.4,53.7,63.2 M56.4,63.2c0,2.1-1,2.9-1.8,2.9
		c-1,0-1.8-0.9-1.8-2.8c0-2,0.9-2.9,1.8-2.9C55.6,60.4,56.4,61.3,56.4,63.2 M50.7,66v-4.8H50v-0.7h0.7v-0.3c0-0.6,0.1-1.2,0.5-1.7
		c0.3-0.4,0.8-0.5,1.1-0.5c0.3,0,0.5,0.1,0.7,0.1l-0.1,0.7c-0.1,0-0.3-0.1-0.5-0.1c-0.6,0-0.8,0.7-0.8,1.4v0.3h1v0.7h-1V66L50.7,66
		L50.7,66z M106.7,49l0.7,3.2c0.1,0.4,0.2,0.8,0.2,1.1h0c0.1-0.3,0.1-0.7,0.2-1.1l0.6-3.2h0.9l-0.9,3.5c-0.3,1.4-0.7,2.7-1.4,3.6
		c-0.4,0.5-0.8,0.8-1,0.8l-0.3-0.8c0.3-0.1,0.5-0.4,0.8-0.7c0.2-0.3,0.4-0.7,0.5-0.9c0-0.1,0.1-0.2,0.1-0.3c0-0.1,0-0.1,0-0.2
		l-1.4-5.1H106.7z M105.3,54.4c-0.2,0.1-0.5,0.2-0.9,0.2c-1.2,0-2-1-2-2.8c0-1.6,0.8-2.9,2.2-2.9c0.3,0,0.6,0.1,0.8,0.2l-0.2,0.7
		c-0.1-0.1-0.3-0.1-0.6-0.1c-0.9,0-1.3,1-1.3,2.1c0,1.3,0.5,2.1,1.3,2.1c0.2,0,0.4-0.1,0.6-0.1L105.3,54.4L105.3,54.4z M98.1,50.4
		c0-0.6,0-1,0-1.4h0.8l0,0.7h0c0.2-0.4,0.7-0.8,1.3-0.8c0.8,0,1.3,0.6,1.3,1.9v3.7h-0.9v-3.6c0-0.6-0.1-1.3-0.8-1.3
		c-0.4,0-0.7,0.3-0.8,0.9c0,0.1,0,0.3,0,0.5v3.5h-0.9V50.4L98.1,50.4z M96.4,51.2c0-1.1-0.4-1.6-0.8-1.6c-0.6,0-0.9,0.8-0.9,1.6
		H96.4z M94.7,51.8c0,1.7,0.7,2.1,1.3,2.1c0.4,0,0.7-0.1,0.9-0.2l0.1,0.7c-0.3,0.2-0.8,0.3-1.2,0.3c-1.3,0-2-1.1-2-2.8
		c0-1.8,0.8-2.9,1.9-2.9c1.1,0,1.6,1.2,1.6,2.4c0,0.2,0,0.4,0,0.5H94.7L94.7,51.8z M92.1,50.9c0-0.1,0-0.3,0-0.4
		c-0.1-0.4-0.3-0.8-0.8-0.8c-0.6,0-1,0.9-1,2.1c0,1.4,0.4,2.1,1,2.1c0.3,0,0.6-0.1,0.8-0.8c0-0.2,0.1-0.3,0.1-0.5L92.1,50.9
		L92.1,50.9z M92.9,53.8c0,1.4-0.2,2-0.5,2.4c-0.3,0.4-0.9,0.6-1.5,0.6c-0.5,0-0.9-0.1-1.2-0.3l0.2-0.7c0.2,0.1,0.6,0.2,1,0.2
		c0.7,0,1.1-0.4,1.1-1.7v-0.6h0c-0.2,0.4-0.6,0.7-1.1,0.7c-1,0-1.6-1.1-1.6-2.7c0-2,0.9-2.9,1.7-2.9c0.6,0,0.9,0.4,1,0.7h0l0-0.6H93
		c0,0.4,0,0.9,0,1.7L92.9,53.8L92.9,53.8z M87.5,51.5l-0.4-1.9c-0.1-0.5-0.2-1.2-0.3-1.8h0c-0.1,0.6-0.2,1.2-0.3,1.8L86,51.5H87.5
		L87.5,51.5z M85.9,52.2l-0.5,2.3h-0.8l1.8-7.7h1l1.7,7.7h-0.9l-0.5-2.3H85.9z M78.4,50.4c0-0.6,0-1,0-1.4h0.8l0,0.7h0
		c0.2-0.4,0.7-0.8,1.3-0.8c0.8,0,1.3,0.6,1.3,1.9v3.7h-0.9v-3.6c0-0.6-0.1-1.3-0.8-1.3c-0.4,0-0.7,0.3-0.8,0.9c0,0.1,0,0.3,0,0.5
		v3.5h-0.9L78.4,50.4L78.4,50.4z M76.4,51.6c-0.5,0-1.5,0.1-1.5,1.3c0,0.7,0.4,1,0.7,1c0.4,0,0.7-0.3,0.8-0.8c0-0.1,0-0.2,0-0.3
		L76.4,51.6L76.4,51.6z M77.3,53.2c0,0.4,0,0.9,0.1,1.3h-0.8l-0.1-0.6h0c-0.2,0.4-0.6,0.7-1.1,0.7C74.6,54.6,74,54,74,53
		c0-1.4,1.1-2,2.3-2v-0.2c0-0.7-0.2-1.3-0.9-1.3c-0.3,0-0.6,0.1-0.9,0.3l-0.2-0.6c0.2-0.2,0.7-0.4,1.3-0.4c1.1,0,1.6,0.7,1.6,2
		L77.3,53.2L77.3,53.2z M72.7,51.2c0-1.1-0.4-1.6-0.8-1.6c-0.6,0-0.9,0.8-0.9,1.6H72.7z M70.9,51.8c0,1.7,0.7,2.1,1.3,2.1
		c0.4,0,0.7-0.1,0.9-0.2l0.1,0.7c-0.3,0.2-0.8,0.3-1.2,0.3c-1.3,0-2-1.1-2-2.8c0-1.8,0.8-2.9,1.9-2.9c1.1,0,1.6,1.2,1.6,2.4
		c0,0.2,0,0.4,0,0.5H70.9L70.9,51.8z M66.7,52.5c0,0.2,0,0.3,0,0.5c0.2,0.8,0.6,0.9,0.8,0.9c0.7,0,1-1,1-2.1c0-1.1-0.3-2.1-1-2.1
		c-0.4,0-0.8,0.5-0.8,1c0,0.1,0,0.3,0,0.4L66.7,52.5L66.7,52.5z M65.8,50.7c0-0.8,0-1.3,0-1.7h0.8l0,0.7h0c0.3-0.6,0.7-0.8,1.2-0.8
		c1,0,1.6,1,1.6,2.8c0,2-0.8,2.9-1.7,2.9c-0.5,0-0.8-0.3-1-0.6h0v2.7h-0.9V50.7L65.8,50.7z M62.2,51.7c0,0.9,0.2,2.2,1,2.2
		c0.8,0,0.9-1.3,0.9-2.2c0-0.8-0.1-2.1-0.9-2.1C62.3,49.6,62.2,50.9,62.2,51.7 M64.9,51.7c0,2.1-1,2.9-1.8,2.9c-1,0-1.8-0.9-1.8-2.8
		c0-2,0.9-2.9,1.8-2.9C64.1,48.9,64.9,49.8,64.9,51.7 M58.8,50.4c0-0.5,0-1,0-1.4h0.8l0,0.9h0c0.2-0.5,0.6-1,1.2-1
		c0.1,0,0.1,0,0.2,0v0.9c-0.1,0-0.1,0-0.2,0c-0.6,0-1,0.5-1.1,1.2c0,0.1,0,0.3,0,0.5v3.1h-0.9V50.4L58.8,50.4z M57.6,53
		c0,0.6,0,1.1,0,1.5h-0.8l-0.1-0.6h0c-0.2,0.3-0.6,0.7-1.2,0.7c-1,0-1.3-0.8-1.3-2.1V49h0.9v3.4c0,0.9,0.1,1.5,0.7,1.5
		c0.5,0,0.7-0.5,0.8-0.7c0-0.1,0-0.3,0-0.5V49h0.9L57.6,53L57.6,53z M53.3,50.8h-1.9v2.9h2.2v0.8h-3.1v-7.7h2.9v0.8h-2.1v2.5h1.9
		V50.8L53.3,50.8z"/>
	<path id="path5778" class="st1" d="M46.8,31.5l-0.6,0.8c-5.5,6.9-10.6,12.1-15.3,15.8c-5.8,4.5-11.3,6.8-16.2,6.8
		c-1.4,0-2.3-0.4-2.7-1.2c-1.5-2.7,2.1-9.5,3.6-11.9c0,0,0.1-0.2,0.5-0.9l-0.3-0.9c-0.5,0.5-1.1,1.2-1.1,1.2
		C8.9,48,6.4,54.2,8.1,57.8c1.1,2.3,3.7,3.5,7.8,3.5c5.9,0,11.9-2.1,18.3-6.3c5.7-3.8,10.9-8.7,15.2-13.1l0.2-0.2L46.8,31.5
		L46.8,31.5z M46.6,32.6l2.5,9c-9,9-20.3,19.2-33.1,19.2c-11.9,0-8.7-10.1-0.8-19.2c0,0-8.8,13.9-0.5,13.9
		C25.6,55.4,37,44.5,46.6,32.6"/>
	<path id="path5790" class="st1" d="M37.5,16.5c-3.3,0-7.1,1.8-9,4.6c2.9-1.9,4.6-2.7,5.8-2.7c0.7,0,1.3,0.2,1.8,0.7
		c1.9,1.5,0.4,7.2-9.2,16.2l5.3,4.4c3.9-4.5,12.1-14,10.6-19.7C42.2,17.5,40,16.5,37.5,16.5"/>
	<path id="path5794" class="st1" d="M32.3,39.7L27,35.3c9.6-9.1,11-14.7,9.2-16.2c-0.5-0.4-1.1-0.7-1.8-0.7c-1.2,0-3,0.8-5.8,2.7
		c1.9-2.8,5.7-4.6,9-4.6c2.5,0,4.7,1.1,5.3,3.6C44.4,25.8,36.2,35.2,32.3,39.7 M43.3,19.9c-0.7-2.5-2.8-4-5.8-4l0,0l0,0l0,0
		c-3.5,0-7.5,2-9.4,4.8c0,0-0.1,0.1-0.1,0.2c0,0.4,0,0.8,0,1.2c0.6-0.5,0.9-0.7,0.9-0.7c2.7-1.8,4.4-2.6,5.6-2.6
		c0.5,0,1,0.2,1.5,0.6c0.3,0.3,0.5,0.7,0.5,1.3c0,1.1-0.5,5.5-9.7,14.2l-0.4,0.4l6.2,5.1l0.3-0.4c3.2-3.6,5.7-6.6,7.5-9.4
		C43,26.2,44,22.5,43.3,19.9"/>
	<path id="path5798" class="st2" d="M29.2,32.4c-2.4-6.9-3.4-14.6,3.2-25.9h-1.2C24.6,18.2,26,26,28.5,33.1
		C28.7,32.9,29,32.6,29.2,32.4"/>
	<path id="path5802" class="st3" d="M33.1,46.2c0.3-0.3,0.6-0.5,0.9-0.8c-0.3-1.1-0.7-2.1-1-3.1c-0.2-0.6-0.4-1.3-0.6-1.9l-1.6-1.4
		c0.3,0.8,0.6,1.7,0.9,2.5C32.1,43,32.6,44.6,33.1,46.2"/>
	<path id="path5806" class="st3" d="M35,54.5c0.9,6.5,0.6,14.2-3.4,23H21.5c-0.1,0.3-0.3,0.6-0.4,0.9h11.3
		c4.3-9.5,4.6-17.7,3.6-24.6C35.6,54,35.3,54.3,35,54.5"/>
	<path id="path5810" class="st4" d="M23.4,52.7c2.4-1.1,4.9-2.7,7.4-4.7c0.7-0.6,1.5-1.2,2.3-1.9c-0.5-1.7-1-3.2-1.5-4.7
		c-0.3-0.8-0.6-1.7-0.9-2.5l-4.1-3.4l-0.4-0.4l0.4-0.4c0.7-0.6,1.3-1.2,1.9-1.8c-2.6-7.2-3.9-15.3,3.1-27.5H20.3
		c-9.9,17-3.2,25.9,0,35.9C21.3,44.7,22.6,48.5,23.4,52.7"/>
	<path id="path5814" class="st5" d="M34.2,55c-3.5,2.3-6.8,4-10.1,5c0.1,5.2-0.9,11-3.8,17.5h11.3c4-8.8,4.3-16.5,3.4-23
		C34.7,54.7,34.5,54.8,34.2,55"/>
	<path id="path5826" class="st0" d="M42.8,20c-0.7-2.5-2.8-3.6-5.3-3.6c-3.3,0-7.1,1.8-9,4.6c2.9-1.9,4.6-2.7,5.8-2.7
		c0.7,0,1.3,0.2,1.8,0.7c1.9,1.5,0.4,7.2-9.2,16.2l5.3,4.4C36.2,35.2,44.4,25.8,42.8,20"/>
	<path id="path5830" class="st0" d="M15.9,60.8c12.8,0,24.1-10.2,33.1-19.2l-2.5-9C37,44.5,25.6,55.4,14.7,55.4
		c-8.3,0,0.5-13.9,0.5-13.9C7.3,50.7,4.1,60.8,15.9,60.8"/>
</g>
</svg>
