<?xml version="1.0" encoding="utf-8"?>
<!-- Generator: Adobe Illustrator 22.1.0, SVG Export Plug-In . SVG Version: 6.00 Build 0)  -->
<svg version="1.1" id="Capa_1" xmlns="http://www.w3.org/2000/svg" xmlns:xlink="http://www.w3.org/1999/xlink" x="0px" y="0px"
	 width="34.5px" height="78.4px" viewBox="0 0 34.5 78.4" style="enable-background:new 0 0 34.5 78.4;" xml:space="preserve">
<style type="text/css">
	.st0{fill:#449FA2;}
</style>
<path id="head" class="st0" d="M17.2,2.9c-4.7,0-8.5,3.9-8.5,8.6s3.8,8.6,8.6,8.6c4.7,0,8.5-3.8,8.5-8.6C25.9,6.8,22,2.9,17.2,2.9
	C17.3,2.9,17.3,2.9,17.2,2.9z M17.2,16.7c-2.8,0-5.1-2.3-5.1-5.1s2.3-5.2,5.1-5.2s5.1,2.3,5.1,5.1l0,0
	C22.4,14.4,20.1,16.7,17.2,16.7z"/>
<path id="body" class="st0" d="M29.2,21.2l-0.1-0.1L24.6,20c-0.6-0.2-1.2,0-1.6,0.5l-5.7,5.6l-5.6-5.6C11.2,20,10.6,19.8,10,20
	l-4.4,1.2l-0.1,0.1c-3.2,1.1-5.3,4-5.3,7.4v17.2c0,4.1,2.9,7.6,6.9,8.4v22.5c0,1,0.8,1.7,1.7,1.7l0,0h17.1c1,0,1.7-0.8,1.7-1.7l0,0
	V54.2c4-0.8,6.9-4.3,6.9-8.4V28.6C34.4,25.2,32.3,22.3,29.2,21.2z M27.6,50.6V32c0.1-1-0.7-1.8-1.6-1.8c-1-0.1-1.8,0.7-1.8,1.6
	c0,0.1,0,0.1,0,0.2v43H19V49.2c0.1-1-0.7-1.8-1.6-1.8c-1-0.1-1.8,0.7-1.8,1.6c0,0.1,0,0.1,0,0.2V75h-5.1V32c0.1-1-0.7-1.8-1.6-1.8
	c-1-0.1-1.8,0.7-1.8,1.6c0,0.1,0,0.1,0,0.2v18.6c-2.1-0.7-3.4-2.7-3.4-4.8V28.6c0-1.9,1.2-3.5,2.9-4.1l3.4-0.9l6.2,6.2
	c0.7,0.7,1.8,0.7,2.4,0l0,0l6.2-6.2l3.4,0.9c1.8,0.6,2.9,2.3,2.9,4.1v17.2C31,47.9,29.6,49.8,27.6,50.6L27.6,50.6z"/>
</svg>
