<?xml version="1.0" encoding="utf-8"?>
<!-- Generator: Adobe Illustrator 22.1.0, SVG Export Plug-In . SVG Version: 6.00 Build 0)  -->
<svg version="1.1" id="svg6655" xmlns:svg="http://www.w3.org/2000/svg"
	 xmlns="http://www.w3.org/2000/svg" xmlns:xlink="http://www.w3.org/1999/xlink" x="0px" y="0px" width="130px" height="37px"
	 viewBox="0 0 130 37" style="enable-background:new 0 0 130 37;" xml:space="preserve">
<style type="text/css">
	.st0{fill:#0C4DA2;}
	.st1{fill:#FFFFFF;}
	.st2{fill:#6C6C6F;}
	.st3{fill:#58585A;}
	.st4{fill:#A7A9AC;}
	.st5{fill:#B1B3B4;}
	.st6{fill:#003399;}
	.st7{fill:#FFCD00;}
</style>
<g>
	<path id="path5774" class="st0" d="M45.8,28.5L45.8,28.5c0.1-0.2,0.2-0.4,0.3-0.5l1-1.7h0.8l-1.3,2l1.4,2.8h-0.9l-1.1-2.3l-0.3,0.5
		v1.8H45v-6.9h0.8V28.5L45.8,28.5z M42.6,27.5c0-0.4,0-0.9,0-1.3h0.7l0,0.8h0c0.2-0.5,0.6-0.8,1-0.8c0.1,0,0.1,0,0.2,0V27
		c0,0-0.1,0-0.2,0c-0.5,0-0.9,0.5-0.9,1c0,0.1,0,0.3,0,0.4v2.7h-0.8L42.6,27.5L42.6,27.5z M39.4,28.7c0,0.8,0.1,1.9,0.8,1.9
		c0.7,0,0.8-1.1,0.8-1.9c0-0.7-0.1-1.9-0.8-1.9C39.5,26.8,39.4,28,39.4,28.7 M41.8,28.7c0,1.9-0.9,2.5-1.6,2.5
		c-0.9,0-1.6-0.8-1.6-2.5c0-1.8,0.8-2.5,1.6-2.5C41.1,26.2,41.8,27,41.8,28.7 M33.5,31.1l-1.3-6.8H33l0.6,3.3
		c0.1,0.9,0.3,1.6,0.3,2.4h0c0.1-0.9,0.2-1.6,0.4-2.5l0.6-3.3h0.7l0.6,3.2c0.2,0.8,0.3,1.6,0.4,2.5h0c0.1-1,0.2-1.7,0.4-2.5l0.6-3.2
		h0.8l-1.3,6.8h-0.8l-0.7-3.3c-0.1-0.7-0.3-1.5-0.3-2.2h0c-0.1,0.8-0.2,1.5-0.4,2.2l-0.7,3.3L33.5,31.1L33.5,31.1z M29.3,25.1v1.1
		h0.9v0.6h-0.9v2.9c0,0.6,0.2,0.8,0.5,0.8c0.1,0,0.2,0,0.3,0l0,0.6c-0.1,0-0.3,0.1-0.6,0.1c-0.3,0-0.6-0.1-0.8-0.3
		c-0.2-0.2-0.3-0.6-0.3-1.2v-2.8h-0.6v-0.6h0.6v-0.8L29.3,25.1L29.3,25.1z M26.6,28.6c-0.4,0-1.3,0.1-1.3,1.1c0,0.6,0.3,0.9,0.6,0.9
		c0.3,0,0.6-0.3,0.7-0.7c0-0.1,0-0.2,0-0.3V28.6z M27.3,30c0,0.4,0,0.8,0,1.1h-0.7l0-0.5h0c-0.2,0.4-0.6,0.6-1,0.6
		c-0.7,0-1.2-0.6-1.2-1.4c0-1.2,1-1.8,2.1-1.8v-0.2c0-0.7-0.2-1.1-0.8-1.1c-0.3,0-0.6,0.1-0.8,0.3l-0.2-0.5c0.2-0.2,0.7-0.3,1.1-0.3
		c1,0,1.4,0.6,1.4,1.7L27.3,30L27.3,30z M85.1,14.1h0.8v2.6h0c0.1-0.2,0.3-0.3,0.4-0.4c0.2-0.1,0.4-0.2,0.7-0.2
		c0.6,0,1.1,0.5,1.1,1.7V21h-0.8v-3.1c0-0.6-0.1-1.2-0.7-1.2c-0.4,0-0.6,0.3-0.8,0.8c0,0.1,0,0.3,0,0.4V21h-0.8L85.1,14.1L85.1,14.1
		z M83.6,15v1.1h0.9v0.6h-0.9v2.9c0,0.6,0.2,0.8,0.5,0.8c0.1,0,0.2,0,0.3,0l0,0.6c-0.1,0-0.3,0.1-0.6,0.1c-0.3,0-0.6-0.1-0.8-0.3
		c-0.2-0.2-0.3-0.6-0.3-1.2v-2.8h-0.6v-0.6h0.6v-0.8L83.6,15L83.6,15z M80.8,14.1h0.8v7h-0.8V14.1z M79.1,18.5
		c-0.4,0-1.3,0.1-1.3,1.1c0,0.6,0.3,0.9,0.6,0.9c0.3,0,0.6-0.3,0.7-0.7c0-0.1,0-0.2,0-0.3L79.1,18.5L79.1,18.5z M79.8,19.9
		c0,0.4,0,0.8,0.1,1.1h-0.7l0-0.5h0c-0.2,0.4-0.6,0.6-1,0.6c-0.7,0-1.2-0.6-1.2-1.4c0-1.2,1-1.8,2.1-1.8v-0.2c0-0.7-0.2-1.1-0.8-1.1
		c-0.3,0-0.6,0.1-0.8,0.3l-0.2-0.5c0.2-0.2,0.7-0.3,1.1-0.3c1,0,1.4,0.6,1.4,1.7V19.9z M75.8,18.1c0-1-0.4-1.4-0.7-1.4
		c-0.5,0-0.8,0.7-0.8,1.4H75.8z M74.3,18.7c0,1.5,0.6,1.8,1.2,1.8c0.3,0,0.6-0.1,0.8-0.2l0.1,0.6c-0.3,0.2-0.7,0.2-1.1,0.2
		c-1.2,0-1.8-1-1.8-2.4c0-1.6,0.7-2.6,1.6-2.6c1,0,1.4,1,1.4,2.1c0,0.2,0,0.3,0,0.4L74.3,18.7L74.3,18.7z M70,14.2v2.9h1.9v-2.9h0.8
		V21h-0.8v-3.2H70V21h-0.8v-6.8H70z M65.6,18c0-0.1,0-0.2,0-0.3c-0.1-0.5-0.4-0.9-0.7-0.9c-0.6,0-0.9,0.9-0.9,1.9
		c0,1,0.3,1.8,0.8,1.8c0.2,0,0.6-0.1,0.7-0.8c0-0.1,0-0.2,0-0.3L65.6,18L65.6,18z M66.4,14.1v5.8c0,0.3,0,0.9,0,1.2h-0.7l-0.1-0.6h0
		c-0.2,0.4-0.5,0.7-1,0.7c-0.8,0-1.4-0.9-1.4-2.5c0-1.7,0.7-2.5,1.5-2.5c0.4,0,0.7,0.2,0.9,0.6h0v-2.6L66.4,14.1L66.4,14.1z
		 M59.5,17.4c0-0.6,0-0.9,0-1.3h0.7l0,0.6h0c0.2-0.4,0.6-0.7,1.1-0.7c0.7,0,1.2,0.5,1.2,1.7V21h-0.8v-3.1c0-0.6-0.1-1.2-0.7-1.2
		c-0.3,0-0.6,0.3-0.7,0.8c0,0.1,0,0.3,0,0.4V21h-0.8L59.5,17.4L59.5,17.4z M57.7,18.5c-0.4,0-1.3,0.1-1.3,1.1c0,0.6,0.3,0.9,0.6,0.9
		c0.3,0,0.6-0.3,0.7-0.7c0-0.1,0-0.2,0-0.3L57.7,18.5L57.7,18.5z M58.5,19.9c0,0.4,0,0.8,0.1,1.1h-0.7l0-0.5h0
		c-0.2,0.4-0.6,0.6-1,0.6c-0.7,0-1.2-0.6-1.2-1.4c0-1.2,1-1.8,2.1-1.8v-0.2c0-0.7-0.2-1.1-0.8-1.1c-0.3,0-0.6,0.1-0.8,0.3L56,16.4
		c0.2-0.2,0.7-0.3,1.1-0.3c1,0,1.4,0.6,1.4,1.7L58.5,19.9L58.5,19.9z M51.2,16.2l0.6,2.8c0.1,0.4,0.1,0.7,0.2,1h0
		c0-0.3,0.1-0.6,0.2-1l0.6-2.8h0.8l-0.8,3.1c-0.3,1.2-0.6,2.4-1.2,3.1c-0.3,0.4-0.7,0.7-0.9,0.7l-0.3-0.7c0.2-0.1,0.5-0.3,0.7-0.6
		c0.2-0.3,0.4-0.6,0.4-0.8c0-0.1,0.1-0.2,0.1-0.2c0-0.1,0-0.1,0-0.2l-1.2-4.5L51.2,16.2L51.2,16.2z M49,15v1.1h0.9v0.6H49v2.9
		c0,0.6,0.2,0.8,0.5,0.8c0.1,0,0.2,0,0.3,0l0,0.6c-0.1,0-0.3,0.1-0.6,0.1c-0.3,0-0.6-0.1-0.8-0.3c-0.2-0.2-0.3-0.6-0.3-1.2v-2.8
		h-0.6v-0.6h0.6v-0.8L49,15L49,15z M46.5,18.1c0-1-0.4-1.4-0.7-1.4c-0.5,0-0.8,0.7-0.8,1.4H46.5z M45,18.7c0,1.5,0.6,1.8,1.2,1.8
		c0.3,0,0.6-0.1,0.8-0.2l0.1,0.6c-0.3,0.2-0.7,0.2-1.1,0.2c-1.2,0-1.8-1-1.8-2.4c0-1.6,0.7-2.6,1.6-2.6c1,0,1.4,1,1.4,2.1
		c0,0.2,0,0.3,0,0.4L45,18.7L45,18.7z M42.3,21v-4.3h-0.6v-0.6h0.6v-0.3c0-0.5,0.1-1.1,0.4-1.5c0.3-0.3,0.7-0.4,1-0.4
		c0.3,0,0.5,0,0.6,0.1l-0.1,0.6c-0.1,0-0.2-0.1-0.4-0.1c-0.6,0-0.7,0.6-0.7,1.2v0.3H44v0.6h-0.9V21L42.3,21L42.3,21z M40.4,18.5
		c-0.4,0-1.3,0.1-1.3,1.1c0,0.6,0.3,0.9,0.6,0.9c0.3,0,0.6-0.3,0.7-0.7c0-0.1,0-0.2,0-0.3L40.4,18.5L40.4,18.5z M41.2,19.9
		c0,0.4,0,0.8,0.1,1.1h-0.7l0-0.5h0c-0.2,0.4-0.6,0.6-1,0.6c-0.7,0-1.2-0.6-1.2-1.4c0-1.2,1-1.8,2.1-1.8v-0.2c0-0.7-0.2-1.1-0.8-1.1
		c-0.3,0-0.6,0.1-0.8,0.3l-0.2-0.5c0.2-0.2,0.7-0.3,1.1-0.3c1,0,1.4,0.6,1.4,1.7L41.2,19.9L41.2,19.9z M34.9,20.1
		c0.2,0.2,0.6,0.3,1,0.3c0.7,0,1.1-0.5,1.1-1.1c0-0.6-0.4-1-0.9-1.4c-0.5-0.4-1.3-1-1.3-1.9c0-1,0.7-1.8,1.8-1.8
		c0.4,0,0.8,0.1,1,0.3l-0.2,0.7c-0.2-0.1-0.5-0.2-0.8-0.2c-0.7,0-1,0.5-1,1c0,0.7,0.4,0.9,1,1.4c0.8,0.6,1.2,1.2,1.2,1.9
		c0,1.2-0.8,1.9-1.9,1.9c-0.5,0-1-0.2-1.1-0.3L34.9,20.1L34.9,20.1z M30.8,17.4c0-0.4,0-0.9,0-1.3h0.7l0,0.8h0
		c0.2-0.5,0.6-0.8,1-0.8c0.1,0,0.1,0,0.2,0v0.8c0,0-0.1,0-0.2,0c-0.5,0-0.9,0.5-0.9,1c0,0.1,0,0.3,0,0.4V21h-0.8L30.8,17.4
		L30.8,17.4z M27.6,18.6c0,0.8,0.1,1.9,0.8,1.9c0.7,0,0.8-1.1,0.8-1.9c0-0.7-0.1-1.9-0.8-1.9C27.7,16.7,27.6,17.8,27.6,18.6
		 M30,18.6c0,1.9-0.9,2.5-1.6,2.5c-0.9,0-1.6-0.8-1.6-2.5c0-1.8,0.8-2.5,1.6-2.5C29.3,16.1,30,16.9,30,18.6 M24.9,21v-4.3h-0.6v-0.6
		h0.6v-0.3c0-0.5,0.1-1.1,0.4-1.5c0.3-0.3,0.7-0.4,1-0.4c0.3,0,0.5,0,0.6,0.1l-0.1,0.6c-0.1,0-0.2-0.1-0.4-0.1
		c-0.6,0-0.7,0.6-0.7,1.2v0.3h0.9v0.6h-0.9V21L24.9,21L24.9,21z M74.3,6L75,8.8c0.1,0.4,0.1,0.7,0.2,1h0c0-0.3,0.1-0.6,0.2-1L76,6
		h0.8l-0.8,3.1c-0.3,1.2-0.6,2.4-1.2,3.1C74.4,12.7,74,13,73.9,13l-0.3-0.7c0.2-0.1,0.5-0.3,0.7-0.6c0.2-0.3,0.4-0.6,0.4-0.8
		c0-0.1,0.1-0.2,0.1-0.2c0-0.1,0-0.1,0-0.2L73.5,6H74.3z M73.1,10.8c-0.2,0.1-0.5,0.2-0.8,0.2c-1.1,0-1.8-0.9-1.8-2.5
		c0-1.4,0.7-2.5,1.9-2.5C72.7,6,73,6,73.1,6.1l-0.2,0.6c-0.1-0.1-0.3-0.1-0.6-0.1c-0.8,0-1.1,0.9-1.1,1.9c0,1.1,0.4,1.8,1.1,1.8
		c0.2,0,0.4-0.1,0.6-0.1L73.1,10.8L73.1,10.8z M66.7,7.3c0-0.6,0-0.9,0-1.3h0.7l0,0.6h0C67.6,6.2,68,6,68.5,6c0.7,0,1.2,0.5,1.2,1.7
		v3.3h-0.8V7.8c0-0.6-0.1-1.2-0.7-1.2c-0.3,0-0.6,0.3-0.7,0.8c0,0.1,0,0.3,0,0.4v3.1h-0.8L66.7,7.3L66.7,7.3z M65.3,8
		c0-1-0.4-1.4-0.7-1.4c-0.5,0-0.8,0.7-0.8,1.4H65.3z M63.7,8.5c0,1.5,0.6,1.8,1.2,1.8c0.3,0,0.6-0.1,0.8-0.2l0.1,0.6
		c-0.3,0.2-0.7,0.2-1.1,0.2c-1.2,0-1.8-1-1.8-2.4C63,6.9,63.6,6,64.6,6c1,0,1.4,1,1.4,2.1c0,0.2,0,0.3,0,0.4H63.7L63.7,8.5z
		 M61.4,7.7c0-0.1,0-0.3,0-0.4c-0.1-0.3-0.3-0.7-0.7-0.7c-0.6,0-0.9,0.8-0.9,1.8c0,1.2,0.4,1.8,0.9,1.8c0.2,0,0.5-0.1,0.7-0.7
		c0-0.2,0-0.3,0-0.4L61.4,7.7L61.4,7.7z M62.2,10.3c0,1.3-0.2,1.8-0.5,2.1c-0.3,0.3-0.8,0.5-1.3,0.5c-0.4,0-0.8-0.1-1.1-0.2l0.2-0.6
		c0.2,0.1,0.5,0.2,0.9,0.2c0.6,0,1-0.4,1-1.5v-0.5h0c-0.2,0.4-0.5,0.6-0.9,0.6c-0.9,0-1.4-1-1.4-2.4C59,6.7,59.9,6,60.6,6
		c0.5,0,0.8,0.3,0.9,0.6h0l0-0.6h0.7c0,0.3,0,0.8,0,1.5L62.2,10.3L62.2,10.3z M57.4,8.2L57,6.5c-0.1-0.5-0.2-1-0.3-1.5h0
		c-0.1,0.5-0.2,1.1-0.3,1.5l-0.4,1.7H57.4L57.4,8.2z M56,8.9l-0.5,2h-0.7l1.5-6.8h0.9l1.5,6.8h-0.8l-0.5-2H56z M49.3,7.3
		c0-0.6,0-0.9,0-1.3H50l0,0.6h0C50.2,6.2,50.6,6,51.1,6c0.7,0,1.2,0.5,1.2,1.7v3.3h-0.8V7.8c0-0.6-0.1-1.2-0.7-1.2
		c-0.3,0-0.6,0.3-0.7,0.8c0,0.1,0,0.3,0,0.4v3.1h-0.8L49.3,7.3L49.3,7.3z M47.6,8.4c-0.4,0-1.3,0.1-1.3,1.1c0,0.6,0.3,0.9,0.6,0.9
		c0.3,0,0.6-0.3,0.7-0.7c0-0.1,0-0.2,0-0.3L47.6,8.4L47.6,8.4z M48.4,9.8c0,0.4,0,0.8,0.1,1.1h-0.7l0-0.5h0c-0.2,0.4-0.6,0.6-1,0.6
		c-0.7,0-1.2-0.6-1.2-1.4c0-1.2,1-1.8,2.1-1.8V7.7c0-0.7-0.2-1.1-0.8-1.1c-0.3,0-0.6,0.1-0.8,0.3l-0.2-0.5C46,6.1,46.5,6,47,6
		c1,0,1.4,0.6,1.4,1.7L48.4,9.8L48.4,9.8z M44.3,8c0-1-0.4-1.4-0.7-1.4c-0.5,0-0.8,0.7-0.8,1.4H44.3z M42.8,8.5
		c0,1.5,0.6,1.8,1.2,1.8c0.3,0,0.6-0.1,0.8-0.2l0.1,0.6c-0.3,0.2-0.7,0.2-1.1,0.2c-1.2,0-1.8-1-1.8-2.4C42,6.9,42.7,6,43.7,6
		c1,0,1.4,1,1.4,2.1c0,0.2,0,0.3,0,0.4H42.8L42.8,8.5z M39.1,9.1c0,0.2,0,0.3,0,0.4c0.2,0.7,0.5,0.8,0.7,0.8c0.6,0,0.8-0.9,0.8-1.9
		c0-1-0.2-1.8-0.9-1.8c-0.4,0-0.7,0.4-0.7,0.9c0,0.1,0,0.2,0,0.4L39.1,9.1L39.1,9.1z M38.3,7.6c0-0.7,0-1.2,0-1.5h0.7l0,0.6h0
		C39.3,6.1,39.6,6,40,6c0.8,0,1.4,0.9,1.4,2.5c0,1.8-0.7,2.5-1.5,2.5c-0.5,0-0.7-0.3-0.8-0.6h0v2.4h-0.8V7.6L38.3,7.6z M35.1,8.5
		c0,0.8,0.1,1.9,0.8,1.9c0.7,0,0.8-1.1,0.8-1.9c0-0.7-0.1-1.9-0.8-1.9C35.2,6.6,35.1,7.7,35.1,8.5 M37.5,8.5c0,1.9-0.9,2.5-1.6,2.5
		c-0.9,0-1.6-0.8-1.6-2.5c0-1.8,0.8-2.5,1.6-2.5C36.8,6,37.5,6.8,37.5,8.5 M32.1,7.3c0-0.4,0-0.9,0-1.3h0.7l0,0.8h0
		c0.2-0.5,0.6-0.8,1-0.8c0.1,0,0.1,0,0.2,0v0.8c0,0-0.1,0-0.2,0c-0.5,0-0.9,0.5-0.9,1c0,0.1,0,0.3,0,0.4v2.7h-0.8V7.3L32.1,7.3z
		 M31.1,9.6c0,0.5,0,1,0,1.3h-0.7l-0.1-0.5h0c-0.2,0.2-0.5,0.6-1,0.6c-0.9,0-1.2-0.7-1.2-1.9V6h0.8v3c0,0.8,0.1,1.3,0.7,1.3
		c0.5,0,0.7-0.4,0.7-0.6c0-0.1,0-0.3,0-0.4V6h0.8L31.1,9.6L31.1,9.6z M27.3,7.7h-1.7v2.5h1.9v0.7h-2.7V4.1h2.6v0.7h-1.8V7h1.7V7.7
		L27.3,7.7z"/>
	<path id="path5790" class="st1" d="M16,8.2c-1.2,0-2.7,0.7-3.4,1.7c1.1-0.7,1.7-1,2.2-1c0.3,0,0.5,0.1,0.7,0.3
		c0.7,0.6,0.2,2.7-3.5,6.2l2,1.7c1.5-1.7,4.6-5.3,4-7.5C17.8,8.6,17,8.2,16,8.2"/>
	<path id="path5798" class="st2" d="M12.9,14.3c-0.9-2.6-1.3-5.5,1.2-9.9h-0.5c-2.5,4.5-2,7.4-1,10.1C12.7,14.4,12.8,14.4,12.9,14.3
		"/>
	<path id="path5802" class="st3" d="M14.3,19.5c0.1-0.1,0.2-0.2,0.3-0.3c-0.1-0.4-0.3-0.8-0.4-1.2c-0.1-0.2-0.2-0.5-0.2-0.7
		l-0.6-0.5c0.1,0.3,0.2,0.6,0.3,0.9C13.9,18.3,14.1,18.9,14.3,19.5"/>
	<path id="path5806" class="st3" d="M15.1,22.7c0.4,2.5,0.2,5.4-1.3,8.7H9.9c0,0.1-0.1,0.2-0.2,0.3h4.3c1.6-3.6,1.8-6.7,1.4-9.3
		C15.3,22.5,15.2,22.6,15.1,22.7"/>
	<path id="path5810" class="st4" d="M10.7,22c0.9-0.4,1.8-1,2.8-1.8c0.3-0.2,0.6-0.5,0.9-0.7c-0.2-0.6-0.4-1.2-0.6-1.8
		c-0.1-0.3-0.2-0.6-0.3-0.9l-1.5-1.3l-0.2-0.1l0.2-0.2c0.3-0.2,0.5-0.5,0.7-0.7c-1-2.8-1.5-5.8,1.2-10.4H9.5
		c-3.7,6.5-1.2,9.8,0,13.6C9.9,19,10.4,20.4,10.7,22"/>
	<path id="path5814" class="st5" d="M14.8,22.9c-1.3,0.9-2.6,1.5-3.8,1.9c0,2-0.3,4.2-1.5,6.6h4.3c1.5-3.4,1.7-6.3,1.3-8.7
		C15,22.7,14.9,22.8,14.8,22.9"/>
	<path id="path5826" class="st0" d="M18,9.6c-0.3-1-1.1-1.4-2-1.4c-1.2,0-2.7,0.7-3.4,1.7c1.1-0.7,1.7-1,2.2-1
		c0.3,0,0.5,0.1,0.7,0.3c0.7,0.6,0.2,2.7-3.5,6.2l2,1.7C15.5,15.3,18.6,11.7,18,9.6"/>
	<path id="path5830" class="st0" d="M7.8,25.1c4.9,0,9.2-3.9,12.6-7.3l-0.9-3.4c-3.6,4.5-8,8.7-12.1,8.7c-3.2,0,0.2-5.3,0.2-5.3
		C4.5,21.2,3.3,25.1,7.8,25.1"/>
</g>
<g>
	
		<rect id="rect2997_2_" x="103.5" y="889.5" inkscape:export-filename="F:\FLAG OF THE EUROPEAN UNION.png" inkscape:export-xdpi="90" inkscape:export-ydpi="90" class="st6" width="22.3" height="14.8">
	</rect>
	
		<path id="path3775_35_" inkscape:flatsided="false" inkscape:randomized="0" inkscape:rounded="0" inkscape:transform-center-x="0.067177204" inkscape:transform-center-y="-0.93254379" sodipodi:arg1="-1.5916265" sodipodi:arg2="-0.96330799" sodipodi:cx="135.21739" sodipodi:cy="90.434784" sodipodi:r1="10.437047" sodipodi:r2="4.4349494" sodipodi:sides="5" sodipodi:type="star" class="st7" d="
		M110.3,893.7l0.2,0.6l0.6,0l-0.5,0.4l0.2,0.6l-0.5-0.3l-0.5,0.3l0.1-0.6l-0.5-0.4l0.6,0L110.3,893.7z"/>
	
		<g id="use3777_2_" transform="translate(82,82)" inkscape:transform-center-x="0.067177204" inkscape:transform-center-y="-0.93254379">
		<g>
			
				<path id="path3775_43_" inkscape:flatsided="false" inkscape:randomized="0" inkscape:rounded="0" inkscape:transform-center-x="0.067177204" inkscape:transform-center-y="-0.93254379" sodipodi:arg1="-1.5916265" sodipodi:arg2="-0.96330799" sodipodi:cx="135.21739" sodipodi:cy="90.434784" sodipodi:r1="10.437047" sodipodi:r2="4.4349494" sodipodi:sides="5" sodipodi:type="star" class="st7" d="
				M117.1,900.5l0.2,0.6l0.6,0l-0.5,0.4l0.2,0.6l-0.5-0.3l-0.5,0.3l0.1-0.6l-0.5-0.4l0.6,0L117.1,900.5z"/>
		</g>
	</g>
	<g>
		<g>
			
				<g id="use3779_10_" transform="translate(-60,-104)" inkscape:transform-center-x="0.067177204" inkscape:transform-center-y="-0.93254379">
				
					<path id="path3775_115_" inkscape:flatsided="false" inkscape:randomized="0" inkscape:rounded="0" inkscape:transform-center-x="0.067177204" inkscape:transform-center-y="-0.93254379" sodipodi:arg1="-1.5916265" sodipodi:arg2="-0.96330799" sodipodi:cx="135.21739" sodipodi:cy="90.434784" sodipodi:r1="10.437047" sodipodi:r2="4.4349494" sodipodi:sides="5" sodipodi:type="star" class="st7" d="
					M112.1,891.9l0.2,0.6l0.6,0l-0.5,0.4l0.2,0.6l-0.5-0.3l-0.5,0.3l0.1-0.6l-0.5-0.4l0.6,0L112.1,891.9z"/>
			</g>
			<g>
				<g>
					
						<g id="use3781_10_" transform="translate(0,104)" inkscape:transform-center-x="0.067177204" inkscape:transform-center-y="-0.93254379">
						
							<path id="path3775_114_" inkscape:flatsided="false" inkscape:randomized="0" inkscape:rounded="0" inkscape:transform-center-x="0.067177204" inkscape:transform-center-y="-0.93254379" sodipodi:arg1="-1.5916265" sodipodi:arg2="-0.96330799" sodipodi:cx="135.21739" sodipodi:cy="90.434784" sodipodi:r1="10.437047" sodipodi:r2="4.4349494" sodipodi:sides="5" sodipodi:type="star" class="st7" d="
							M112.1,900.5l0.2,0.6l0.6,0l-0.5,0.4l0.2,0.6l-0.5-0.3l-0.5,0.3l0.1-0.6l-0.5-0.4l0.6,0L112.1,900.5z"/>
					</g>
					<g>
						<g>
							<g>
								
									<g id="use3783_10_" transform="translate(60,-104)" inkscape:transform-center-x="0.067177204" inkscape:transform-center-y="-0.93254379">
									
										<path id="path3775_113_" inkscape:flatsided="false" inkscape:randomized="0" inkscape:rounded="0" inkscape:transform-center-x="0.067177204" inkscape:transform-center-y="-0.93254379" sodipodi:arg1="-1.5916265" sodipodi:arg2="-0.96330799" sodipodi:cx="135.21739" sodipodi:cy="90.434784" sodipodi:r1="10.437047" sodipodi:r2="4.4349494" sodipodi:sides="5" sodipodi:type="star" class="st7" d="
										M117.1,891.9l0.2,0.6l0.6,0l-0.5,0.4l0.2,0.6l-0.5-0.3l-0.5,0.3l0.1-0.6l-0.5-0.4l0.6,0L117.1,891.9z"/>
								</g>
								<g>
									<g>
										<g>
											<g>
												
													<g id="use3785_10_" transform="translate(-82,82)" inkscape:transform-center-x="0.067177204" inkscape:transform-center-y="-0.93254379">
													
														<path id="path3775_112_" inkscape:flatsided="false" inkscape:randomized="0" inkscape:rounded="0" inkscape:transform-center-x="0.067177204" inkscape:transform-center-y="-0.93254379" sodipodi:arg1="-1.5916265" sodipodi:arg2="-0.96330799" sodipodi:cx="135.21739" sodipodi:cy="90.434784" sodipodi:r1="10.437047" sodipodi:r2="4.4349494" sodipodi:sides="5" sodipodi:type="star" class="st7" d="
														M110.3,898.6l0.2,0.6l0.6,0l-0.5,0.4l0.2,0.6l-0.5-0.3l-0.5,0.3l0.1-0.6l-0.5-0.4l0.6,0L110.3,898.6z"/>
												</g>
												<g>
													<g>
														<g>
															<g>
																<g>
																	
																		<g id="use3787_10_" transform="translate(104,-60)" inkscape:transform-center-x="0.067177204" inkscape:transform-center-y="-0.93254379">
																		
																			<path id="path3775_111_" inkscape:flatsided="false" inkscape:randomized="0" inkscape:rounded="0" inkscape:transform-center-x="0.067177204" inkscape:transform-center-y="-0.93254379" sodipodi:arg1="-1.5916265" sodipodi:arg2="-0.96330799" sodipodi:cx="135.21739" sodipodi:cy="90.434784" sodipodi:r1="10.437047" sodipodi:r2="4.4349494" sodipodi:sides="5" sodipodi:type="star" class="st7" d="
																			M118.9,893.7l0.2,0.6l0.6,0l-0.5,0.4l0.2,0.6l-0.5-0.3l-0.5,0.3l0.1-0.6l-0.5-0.4l0.6,0L118.9,893.7z"/>
																	</g>
																	<g>
																		<g>
																			<g>
																				<g>
																					<g>
																						<g>
																							
																								<g id="use3789_10_" transform="translate(8,30)" inkscape:transform-center-x="0.067177204" inkscape:transform-center-y="-0.93254379">
																								
																									<path id="path3775_110_" inkscape:flatsided="false" inkscape:randomized="0" inkscape:rounded="0" inkscape:transform-center-x="0.067177204" inkscape:transform-center-y="-0.93254379" sodipodi:arg1="-1.5916265" sodipodi:arg2="-0.96330799" sodipodi:cx="135.21739" sodipodi:cy="90.434784" sodipodi:r1="10.437047" sodipodi:r2="4.4349494" sodipodi:sides="5" sodipodi:type="star" class="st7" d="
																									M119.5,896.2l0.2,0.6l0.6,0l-0.5,0.4l0.2,0.6l-0.5-0.3l-0.5,0.3l0.1-0.6l-0.5-0.4l0.6,0L119.5,896.2z"/>
																							</g>
																							<g>
																								<g>
																									<g>
																										<g>
																											<g>
																												<g>
																													
																														<g id="layer1_10_" transform="translate(0 -872.36)" inkscape:groupmode="layer" inkscape:label="Layer 1">
																														
																															<path id="path3775_109_" inkscape:flatsided="false" inkscape:randomized="0" inkscape:rounded="0" inkscape:transform-center-x="0.067177204" inkscape:transform-center-y="-0.93254379" sodipodi:arg1="-1.5916265" sodipodi:arg2="-0.96330799" sodipodi:cx="135.21739" sodipodi:cy="90.434784" sodipodi:r1="10.437047" sodipodi:r2="4.4349494" sodipodi:sides="5" sodipodi:type="star" class="st7" d="
																															M109.6,896.2l0.2,0.6l0.6,0l-0.5,0.4l0.2,0.6l-0.5-0.3l-0.5,0.3l0.1-0.6l-0.5-0.4l0.6,0L109.6,896.2z
																															"/>
																														
																															<path id="path3775_108_" inkscape:flatsided="false" inkscape:randomized="0" inkscape:rounded="0" inkscape:transform-center-x="0.067177204" inkscape:transform-center-y="-0.93254379" sodipodi:arg1="-1.5916265" sodipodi:arg2="-0.96330799" sodipodi:cx="135.21739" sodipodi:cy="90.434784" sodipodi:r1="10.437047" sodipodi:r2="4.4349494" sodipodi:sides="5" sodipodi:type="star" class="st7" d="
																															M114.6,901.1l0.2,0.6l0.6,0l-0.5,0.4l0.2,0.6l-0.5-0.3l-0.5,0.3l0.1-0.6l-0.5-0.4l0.6,0L114.6,901.1z
																															"/>
																														
																															<path id="path3775_107_" inkscape:flatsided="false" inkscape:randomized="0" inkscape:rounded="0" inkscape:transform-center-x="0.067177204" inkscape:transform-center-y="-0.93254379" sodipodi:arg1="-1.5916265" sodipodi:arg2="-0.96330799" sodipodi:cx="135.21739" sodipodi:cy="90.434784" sodipodi:r1="10.437047" sodipodi:r2="4.4349494" sodipodi:sides="5" sodipodi:type="star" class="st7" d="
																															M114.6,891.2l0.2,0.6l0.6,0l-0.5,0.4l0.2,0.6l-0.5-0.3l-0.5,0.3l0.1-0.6l-0.5-0.4l0.6,0L114.6,891.2z
																															"/>
																														
																															<path id="path3775_106_" inkscape:flatsided="false" inkscape:randomized="0" inkscape:rounded="0" inkscape:transform-center-x="0.067177204" inkscape:transform-center-y="-0.93254379" sodipodi:arg1="-1.5916265" sodipodi:arg2="-0.96330799" sodipodi:cx="135.21739" sodipodi:cy="90.434784" sodipodi:r1="10.437047" sodipodi:r2="4.4349494" sodipodi:sides="5" sodipodi:type="star" class="st7" d="
																															M118.9,898.6l0.2,0.6l0.6,0l-0.5,0.4l0.2,0.6l-0.5-0.3l-0.5,0.3l0.1-0.6l-0.5-0.4l0.6,0L118.9,898.6z
																															"/>
																													</g>
																												</g>
																											</g>
																										</g>
																									</g>
																								</g>
																							</g>
																						</g>
																					</g>
																				</g>
																			</g>
																		</g>
																	</g>
																</g>
															</g>
														</g>
													</g>
												</g>
											</g>
										</g>
									</g>
								</g>
							</g>
						</g>
					</g>
				</g>
			</g>
		</g>
	</g>
</g>
</svg>
